# xmcd
#
# Track frame offsets: 
#        187
#        13010
#        35560
#        48865
#        68287
#        83042
#        101710
#        113997
#        131542
#        152530
#
# Disc length: 2173 seconds
#
# Revision: 2
# Processed by: cddbd v1.5.2PL0 Copyright (c) Steve Scherf et al.
# Submitted via: ExactAudioCopy v0.95b3
#
DISCID=72087b0a
DTITLE=Muddy Waters - Can't Get No Grindin'
DYEAR=1973
DGENRE=Blues
TTITLE0=Can't Get No Grindin'
TTITLE1=Mother's Bad Luck Child
TTITLE2=Funky Butt
TTITLE3=Sad Letter
TTITLE4=Someday I'm Gonna Ketch You
TTITLE5=Love Weapon
TTITLE6=Garbage Man
TTITLE7=After Hours
TTITLE8=Whiskey No Good
TTITLE9=Muddy Water's Shuffle
EXTD=
EXTT0=
EXTT1=
EXTT2=
EXTT3=
EXTT4=
EXTT5=
EXTT6=
EXTT7=
EXTT8=
EXTT9=
PLAYORDER=
